<?xml version="1.0" standalone="no"?>
<!DOCTYPE svg PUBLIC "-//W3C//DTD SVG 20010904//EN"
 "http://www.w3.org/TR/2001/REC-SVG-20010904/DTD/svg10.dtd">
<svg version="1.0" xmlns="http://www.w3.org/2000/svg"
 width="768.000000pt" height="500.000000pt" viewBox="0 0 768.000000 500.000000"
 preserveAspectRatio="xMidYMid meet">

<g transform="translate(0.000000,500.000000) scale(0.100000,-0.100000)"
fill="#000000" stroke="none">
<path d="M0 2500 l0 -2500 3840 0 3840 0 0 2500 0 2500 -2017 0 -2018 -1 -22
-48 c-13 -26 -26 -62 -29 -79 -4 -18 -9 -32 -13 -32 -4 0 -13 -21 -20 -47 -20
-69 -40 -102 -93 -155 l-47 -47 -11 -143 c-12 -179 -13 -343 -1 -385 9 -30 7
-35 -19 -53 -31 -22 -140 -74 -143 -69 -29 56 -47 98 -47 111 0 9 -4 19 -9 22
-5 3 -12 18 -15 33 -6 26 -46 117 -67 153 -5 8 -17 34 -28 58 -11 23 -25 42
-30 42 -6 0 -17 13 -26 29 -8 16 -24 33 -35 36 -13 4 -23 18 -27 36 l-5 29
-77 0 c-106 0 -109 5 -116 162 -2 68 0 161 5 208 6 47 12 96 13 110 l2 25
-1392 3 -1393 2 0 -2500z m6768 2285 c33 -27 49 -74 61 -180 5 -38 16 -90 24
-115 14 -43 14 -46 -4 -47 -15 -1 -17 3 -12 28 3 18 1 29 -6 29 -7 0 -11 23
-11 63 0 38 -4 57 -9 48 -9 -13 -10 -7 -27 107 -5 30 -15 50 -36 67 -16 14
-25 25 -20 25 6 0 24 -11 40 -25z m-303 -125 c4 -7 -92 -10 -282 -10 -158 -1
-358 -5 -443 -10 -146 -8 -171 -7 -158 5 3 3 133 8 289 12 156 3 286 7 288 9
10 9 300 3 306 -6z m80 -28 c-9 -9 -35 8 -35 24 0 16 2 16 20 -1 11 -10 18
-20 15 -23z m359 -236 c9 -14 13 -33 10 -43 -5 -15 -4 -15 4 -3 17 23 37 -35
32 -95 -2 -27 -3 -26 -12 13 -8 35 -13 42 -28 37 -14 -4 -20 0 -23 17 -3 17
-5 15 -6 -9 0 -18 -5 -33 -10 -33 -12 0 -21 37 -21 93 0 39 3 47 19 47 10 0
26 -11 35 -24z m-837 -42 c13 -13 23 -31 23 -40 0 -15 -5 -13 -28 9 -24 23
-37 27 -86 27 -50 0 -57 2 -46 15 20 24 109 17 137 -11z m-3227 -50 c8 -32 21
-69 28 -81 6 -12 12 -30 12 -41 0 -10 7 -33 16 -51 23 -46 12 -75 -42 -105
-25 -14 -50 -23 -55 -20 -5 3 -9 -2 -9 -11 0 -9 -5 -13 -10 -10 -13 8 -2 341
12 368 16 30 32 14 48 -49z m4077 -56 c-3 -7 -5 -2 -5 12 0 14 2 19 5 13 2 -7
2 -19 0 -25z m10 -120 c-3 -7 -5 -2 -5 12 0 14 2 19 5 13 2 -7 2 -19 0 -25z
m-27 6 c0 -8 -5 -12 -10 -9 -6 4 -8 11 -5 16 9 14 15 11 15 -7z m-2977 -20
c-3 -9 -9 -12 -12 -7 -3 4 -10 11 -15 16 -5 4 0 7 12 7 15 0 20 -4 15 -16z
m-1350 -26 c3 -18 10 -51 17 -73 27 -93 73 -371 65 -396 -7 -22 -43 -35 -57
-21 -5 5 -12 36 -14 68 -9 128 -25 342 -30 397 -6 61 10 81 19 25z m2725 -22
c33 -17 95 -41 142 -54 26 -7 29 -10 12 -11 -25 -1 -143 38 -188 62 -21 12
-24 16 -11 17 11 0 31 -6 45 -14z m1609 -48 c-3 -8 -6 -5 -6 6 -1 11 2 17 5
13 3 -3 4 -12 1 -19z m-1372 -28 c4 -7 -3 -8 -22 -4 -38 9 -42 14 -10 14 14 0
29 -5 32 -10z m1414 -262 c1 -21 -3 -38 -8 -38 -6 0 -7 17 -4 38 6 32 4 35 -9
24 -13 -11 -16 -6 -21 30 -3 24 -2 45 2 48 15 10 20 40 10 72 -5 18 -6 47 -2
63 5 22 10 1 19 -85 7 -63 13 -132 13 -152z m-1341 245 c-10 -2 -26 -2 -35 0
-10 3 -2 5 17 5 19 0 27 -2 18 -5z m85 -10 c-7 -2 -21 -2 -30 0 -10 3 -4 5 12
5 17 0 24 -2 18 -5z m117 -29 c0 -2 -11 -4 -25 -4 -14 0 -25 4 -25 9 0 4 11 6
25 3 14 -2 25 -6 25 -8z m-3015 -23 c3 -11 15 -23 26 -26 10 -4 19 -10 19 -14
0 -4 12 -13 26 -20 19 -8 25 -17 21 -31 -3 -10 0 -21 7 -23 6 -2 -3 -17 -21
-34 -18 -17 -33 -35 -33 -40 0 -8 -47 -33 -62 -33 -5 0 -8 6 -7 13 2 6 -1 47
-5 89 -8 78 -2 138 14 138 5 0 11 -9 15 -19z m3085 9 c18 -12 2 -12 -25 0 -13
6 -15 9 -5 9 8 0 22 -4 30 -9z m343 -91 c43 -12 76 -23 74 -26 -3 -2 -40 6
-83 18 -44 12 -91 24 -106 27 -16 2 -28 8 -28 12 0 5 15 4 33 -1 17 -5 67 -19
110 -30z m143 -38 c-3 -5 -15 -7 -26 -4 -28 7 -25 13 6 13 14 0 23 -4 20 -9z
m54 -15 c0 -9 -30 -14 -35 -6 -4 6 3 10 14 10 12 0 21 -2 21 -4z m25 -6 c3 -5
1 -10 -4 -10 -6 0 -11 5 -11 10 0 6 2 10 4 10 3 0 8 -4 11 -10z m-105 -4 c0
-3 -4 -8 -10 -11 -5 -3 -10 -1 -10 4 0 6 5 11 10 11 6 0 10 -2 10 -4z m155 -6
c3 -5 14 -10 24 -10 10 0 24 -7 31 -15 7 -8 18 -15 24 -15 6 0 4 5 -4 11 -12
9 -12 10 3 5 11 -3 30 -9 43 -12 13 -3 24 -10 24 -15 0 -5 16 -9 36 -9 27 0
41 -7 61 -30 13 -16 31 -30 39 -30 8 0 14 -6 14 -12 0 -10 2 -10 8 -1 4 6 21
19 37 27 27 14 28 16 8 16 -13 0 -23 5 -23 10 0 16 36 12 50 -5 10 -12 10 -19
2 -27 -7 -7 -12 -44 -12 -89 0 -45 -4 -79 -11 -81 -13 -4 -30 -78 -18 -78 5 0
9 -7 9 -16 0 -30 -29 5 -62 75 -18 36 -38 70 -45 74 -8 5 -11 17 -8 27 3 10 1
21 -5 25 -7 4 -9 18 -6 31 5 18 2 24 -9 24 -9 0 -14 4 -11 9 9 15 -21 21 -70
14 -35 -5 -56 -1 -95 17 -27 13 -49 29 -49 36 0 7 -6 14 -12 17 -7 2 0 2 16
-1 19 -3 26 -1 22 7 -4 6 -14 11 -22 11 -8 0 -14 5 -14 10 0 6 4 10 9 10 6 0
13 -4 16 -10z m415 -105 c6 14 9 15 9 4 1 -8 -6 -24 -14 -35 -13 -18 -14 -16
-13 26 1 35 2 38 6 15 4 -26 5 -28 12 -10z m21 -88 c-18 -18 -21 -3 -9 39 l12
39 4 -34 c2 -18 -1 -38 -7 -44z m-2531 -23 c0 -6 7 -17 15 -24 16 -13 59 -143
69 -207 5 -34 3 -43 -9 -43 -17 0 -45 49 -45 80 0 11 -7 23 -15 26 -10 4 -13
13 -10 25 4 12 1 21 -9 25 -20 8 -36 65 -36 129 l0 50 20 -25 c11 -14 20 -30
20 -36z m408 23 c6 -5 12 -27 12 -48 0 -21 5 -41 10 -44 12 -8 13 -25 1 -25
-5 0 -12 11 -15 25 -4 14 -15 34 -25 44 -9 9 -20 25 -24 35 -4 9 -17 21 -29
26 -18 7 -14 8 17 4 22 -4 46 -11 53 -17z m2092 2 c0 -5 -4 -9 -10 -9 -5 0
-10 7 -10 16 0 8 5 12 10 9 6 -3 10 -10 10 -16z m74 -64 c5 -22 4 -26 -4 -15
-5 8 -10 24 -10 34 0 26 6 18 14 -19z m-2293 13 c54 -19 69 -38 62 -80 -5 -35
-7 -37 -36 -31 -21 4 -28 3 -23 -5 9 -15 5 -15 -30 -2 -21 9 -29 7 -40 -7 -10
-14 -15 -16 -25 -5 -10 9 -10 15 -1 24 7 7 12 25 12 40 0 17 8 33 20 40 11 7
20 18 20 25 0 16 -1 16 41 1z m1224 -68 c17 -6 14 -9 -18 -15 -21 -4 -41 -5
-44 -1 -4 3 7 6 23 7 25 0 26 2 9 9 -26 11 3 12 30 0z m1082 -12 c-3 -8 -6 -5
-6 6 -1 11 2 17 5 13 3 -3 4 -12 1 -19z m-1036 -17 c-11 -7 -10 -10 5 -13 18
-5 18 -5 0 -13 -13 -6 -21 -4 -24 3 -2 7 -11 12 -20 13 -10 1 -7 4 8 9 34 11
48 11 31 1z m1016 -13 c-3 -8 -6 -5 -6 6 -1 11 2 17 5 13 3 -3 4 -12 1 -19z
m-969 1 c-2 -3 3 -13 10 -22 8 -9 9 -18 4 -21 -6 -3 -16 2 -23 11 -12 14 -12
17 0 21 11 4 11 6 0 14 -11 8 -11 9 -1 6 8 -2 12 -6 10 -9z m63 -23 c27 -11
30 -16 17 -21 -18 -7 -58 10 -58 25 0 13 1 13 41 -4z m-1406 -16 c4 -6 -3 -29
-14 -51 -12 -22 -21 -44 -21 -50 0 -17 -43 -69 -57 -69 -25 0 -14 57 22 110
19 29 35 56 35 61 0 12 27 11 35 -1z m1162 -12 c-3 -8 -6 -5 -6 6 -1 11 2 17
5 13 3 -3 4 -12 1 -19z m337 -7 c30 -11 44 -21 35 -24 -8 -3 1 -3 19 0 28 5
32 3 32 -16 0 -17 8 -22 41 -27 39 -7 40 -8 19 -19 -22 -12 -22 -12 15 -19 29
-6 35 -10 25 -19 -10 -9 -14 -9 -17 1 -3 7 -22 12 -44 12 -21 0 -39 5 -39 10
0 6 5 10 10 10 6 0 10 4 10 8 0 4 -18 8 -41 9 -26 1 -53 11 -74 27 -19 14 -40
23 -48 20 -22 -8 -30 12 -11 30 19 19 9 20 68 -3z m823 -53 c-3 -7 -5 -2 -5
12 0 14 2 19 5 13 2 -7 2 -19 0 -25z m20 -50 c-3 -8 -6 -5 -6 6 -1 11 2 17 5
13 3 -3 4 -12 1 -19z m-210 -114 c12 -21 20 -45 18 -52 -3 -7 0 -10 5 -7 6 3
10 -3 10 -14 0 -12 -4 -21 -10 -21 -5 0 -10 -20 -10 -45 0 -52 -18 -60 -47
-20 -10 14 -26 35 -35 47 -20 23 -26 138 -8 138 6 0 10 7 10 15 0 27 43 0 67
-41z m180 -76 c-3 -8 -6 -5 -6 6 -1 11 2 17 5 13 3 -3 4 -12 1 -19z m-2772
-38 c3 -5 1 -10 -4 -10 -6 0 -11 5 -11 10 0 6 2 10 4 10 3 0 8 -4 11 -10z
m2772 -132 c-3 -8 -6 -5 -6 6 -1 11 2 17 5 13 3 -3 4 -12 1 -19z m0 -40 c-3
-8 -6 -5 -6 6 -1 11 2 17 5 13 3 -3 4 -12 1 -19z m-127 -23 c0 -8 -2 -15 -4
-15 -2 0 -6 7 -10 15 -3 8 -1 15 4 15 6 0 10 -7 10 -15z m-3893 -137 c-3 -8
-6 -5 -6 6 -1 11 2 17 5 13 3 -3 4 -12 1 -19z m-2 -65 c-12 -65 -43 -121 -82
-148 -21 -14 -42 -25 -48 -26 -14 0 -59 -59 -51 -66 3 -3 23 -9 43 -12 40 -7
50 -23 39 -67 -9 -34 -41 -31 -56 6 -7 17 -20 30 -29 30 -9 0 -42 21 -75 47
-50 40 -56 48 -40 54 11 4 29 8 42 8 37 1 144 49 175 79 16 15 40 51 53 80 28
61 39 67 29 15z m4233 -65 c22 -46 45 -108 52 -138 7 -30 16 -64 20 -75 16
-40 21 -59 31 -129 6 -39 13 -82 16 -96 8 -48 4 -336 -7 -389 -12 -64 -24 -81
-51 -74 -23 6 -23 8 7 103 21 67 25 268 6 380 -7 41 -14 95 -16 120 -7 75 -66
280 -88 305 -4 5 -8 17 -8 28 0 10 -4 16 -9 12 -6 -3 -9 4 -8 15 2 36 15 21
55 -62z m-291 -140 c-3 -8 -6 -5 -6 6 -1 11 2 17 5 13 3 -3 4 -12 1 -19z
m-4118 -385 c-3 -54 -3 -179 2 -278 4 -99 8 -317 9 -485 1 -168 5 -321 7 -340
3 -19 6 -66 5 -105 0 -49 2 -61 7 -40 7 29 8 28 13 -15 3 -25 1 -49 -3 -55 -6
-5 -9 -3 -9 7 0 9 -7 18 -15 22 -10 4 -15 20 -15 50 0 24 -3 46 -7 48 -22 9
-56 201 -66 372 -10 180 -15 722 -7 804 4 43 37 92 70 105 8 3 15 6 15 6 0 1
-3 -43 -6 -96z"/>
<path d="M6090 3340 c-9 -6 -10 -10 -3 -10 6 0 15 5 18 10 8 12 4 12 -15 0z"/>
<path d="M6148 3333 c7 -3 16 -2 19 1 4 3 -2 6 -13 5 -11 0 -14 -3 -6 -6z"/>
<path d="M3306 4978 c13 -43 23 -49 56 -32 20 10 28 20 24 30 -3 9 -6 18 -6
20 0 2 -18 4 -41 4 -37 0 -40 -2 -33 -22z"/>
<path d="M3002 4983 c-6 -2 -9 -9 -6 -14 3 -6 0 -16 -6 -24 -7 -8 -10 -15 -6
-15 3 0 -1 -16 -9 -36 -33 -80 -46 -154 -39 -225 4 -38 11 -69 15 -69 5 0 9 9
9 19 0 11 5 23 10 26 6 3 10 14 10 24 0 9 14 30 30 46 l30 29 0 -32 c0 -22 5
-32 15 -32 8 0 15 9 15 19 0 10 5 63 10 117 6 55 12 108 13 119 1 11 8 24 15
28 23 15 2 27 -46 26 -26 0 -53 -3 -60 -6z"/>
<path d="M3210 4900 c-12 -8 -12 -11 1 -27 8 -10 20 -29 27 -43 24 -51 55 -89
74 -90 11 0 -2 83 -18 116 -9 18 -27 37 -40 43 -29 13 -26 13 -44 1z"/>
</g>
</svg>
