<?xml version="1.0" standalone="no"?>
<!DOCTYPE svg PUBLIC "-//W3C//DTD SVG 20010904//EN"
 "http://www.w3.org/TR/2001/REC-SVG-20010904/DTD/svg10.dtd">
<svg version="1.0" xmlns="http://www.w3.org/2000/svg"
 width="322.000000pt" height="203.000000pt" viewBox="0 0 322.000000 203.000000"
 preserveAspectRatio="xMidYMid meet">

<g transform="translate(0.000000,203.000000) scale(0.100000,-0.100000)"
fill="#000000" stroke="none">
<path d="M865 1551 c-11 -5 -28 -17 -37 -28 -19 -20 -64 -124 -93 -213 -10
-30 -42 -113 -72 -185 -119 -284 -201 -574 -191 -674 3 -33 5 -35 51 -38 l47
-4 20 43 c11 24 20 52 20 63 1 50 91 367 110 389 5 4 11 -1 15 -12 8 -28 37
-36 118 -34 84 2 150 21 241 70 68 37 72 38 74 18 3 -47 74 -66 155 -42 49 14
65 27 141 108 l85 92 -6 -97 c-6 -104 -1 -121 45 -138 35 -13 93 5 126 40 l29
30 28 -20 c73 -52 146 -29 255 80 39 39 69 72 67 74 -2 2 4 10 14 18 15 12 16
12 10 -3 -3 -9 -11 -35 -17 -57 -7 -28 -22 -49 -48 -68 -143 -106 -343 -300
-409 -398 -23 -34 -48 -66 -56 -73 -8 -7 -21 -27 -28 -45 -7 -18 -24 -47 -36
-66 -13 -19 -35 -72 -49 -119 -40 -132 -22 -178 78 -191 55 -7 103 6 187 48
51 26 183 147 231 211 64 86 135 241 198 435 52 158 63 182 88 197 16 9 34 22
41 27 17 15 229 131 273 148 19 9 39 21 43 29 4 8 15 14 22 14 24 0 17 19 -10
26 -18 4 -64 -12 -172 -61 -192 -87 -188 -86 -179 -49 10 40 97 257 107 268
20 22 9 65 -20 85 -57 41 -93 20 -131 -75 -13 -33 -39 -84 -58 -114 -38 -60
-249 -280 -269 -280 -16 0 -3 30 101 240 115 234 107 211 90 247 -17 35 -57
60 -88 55 -24 -4 -56 -30 -56 -46 0 -6 -35 -83 -79 -171 -43 -88 -86 -182 -96
-208 -17 -44 -102 -137 -126 -137 -20 0 12 149 55 265 48 125 51 143 31 165
-36 39 -63 23 -166 -97 -113 -135 -249 -283 -259 -283 -18 0 10 74 39 104 22
22 31 42 31 64 0 57 130 246 189 276 27 14 36 13 86 -9 46 -20 105 -24 105 -6
0 12 -94 79 -128 92 -15 6 -46 8 -70 4 -109 -16 -302 -255 -372 -460 -14 -40
-25 -55 -61 -77 -75 -45 -85 -36 -31 33 88 114 108 146 126 205 10 32 22 69
28 81 6 11 7 26 4 32 -4 6 -2 11 4 11 19 0 0 92 -24 119 -19 20 -27 22 -75 18
-59 -6 -120 -42 -212 -125 -27 -24 -49 -42 -49 -40 0 2 13 35 30 73 36 85 37
105 7 133 -25 23 -40 26 -72 13z m285 -145 c9 -26 -4 -90 -34 -160 -40 -95
-173 -249 -259 -300 -43 -24 -50 -26 -75 -14 -44 21 -39 48 33 153 73 107 222
295 235 295 5 0 15 6 22 13 15 16 50 36 61 37 4 0 12 -11 17 -24z m-544 -513
c-14 -38 -34 -106 -47 -153 -22 -87 -37 -125 -45 -117 -4 4 72 252 95 310 22
56 20 25 -3 -40z m1437 -15 c-4 -7 -6 -21 -5 -30 2 -10 -2 -26 -8 -38 -6 -11
-24 -64 -40 -116 -61 -196 -206 -443 -303 -514 -87 -64 -122 -50 -114 46 3 34
10 71 16 83 6 11 16 30 21 41 6 11 10 29 10 40 0 26 36 85 52 85 7 0 12 8 12
18 -1 9 2 15 6 12 8 -5 50 41 50 55 0 3 49 58 109 120 60 63 109 118 108 123
-1 5 6 11 16 12 24 4 58 35 51 46 -7 11 4 29 17 29 6 0 7 -6 2 -12z"/>
</g>
</svg>
